<svg xmlns="http://www.w3.org/2000/svg" viewBox="16 -3 648 543" width="648" height="543" font-family="Helvetica, Arial, sans-serif"><style>text{font-family:Helvetica,Arial,sans-serif;}.h{font-size:15px;font-weight:600;}.t{font-size:10px;font-weight:600;}.b{font-size:8.5px;font-weight:400;}.f{font-size:8px;font-weight:400;}</style>
<rect x="16" y="-3" width="648" height="543" rx="16" fill="#EBEDF2" stroke="#E2E3E8" stroke-width="1"/>
<text class="h" x="40" y="32" style="fill:#2C2C31">Nvidia GB200 — Supplier Breakdown</text>

<!-- Package cross-section -->
<rect x="170" y="48" width="340" height="270" rx="14" fill="#FFFFFF" stroke="#DCE1E8" stroke-width="1"/>
<rect x="182" y="60" width="316" height="246" rx="8" fill="#E1F5EE" stroke="#0F6E56" stroke-width="0.5"/>
<rect x="276" y="74" width="128" height="30" rx="5" fill="#E8E9EC" stroke="#CBCED4" stroke-width="0.5"/>
<text class="t" x="340" y="89" text-anchor="middle" dominant-baseline="central" style="fill:#A8ABB4">Grace CPU</text>
<rect x="196" y="108" width="288" height="16" rx="3" fill="#E8E9EC" stroke="#CBCED4" stroke-width="0.5"/>
<text class="b" x="340" y="116" text-anchor="middle" dominant-baseline="central" style="fill:#A8ABB4">NVLink-C2C</text>
<rect x="196" y="132" width="34" height="120" rx="4" fill="#E8E9EC" stroke="#CBCED4" stroke-width="0.5"/>
<text class="b" x="213" y="192" text-anchor="middle" dominant-baseline="central" style="fill:#A8ABB4">HBM</text>
<rect x="450" y="132" width="34" height="120" rx="4" fill="#E8E9EC" stroke="#CBCED4" stroke-width="0.5"/>
<text class="b" x="467" y="192" text-anchor="middle" dominant-baseline="central" style="fill:#A8ABB4">HBM</text>
<rect x="238" y="132" width="96" height="120" rx="6" fill="#E8E9EC" stroke="#CBCED4" stroke-width="0.5"/>
<text class="t" x="286" y="186" text-anchor="middle" dominant-baseline="central" style="fill:#A8ABB4">Blackwell</text>
<text class="b" x="286" y="204" text-anchor="middle" dominant-baseline="central" style="fill:#A8ABB4">GPU</text>
<rect x="346" y="132" width="96" height="120" rx="6" fill="#E8E9EC" stroke="#CBCED4" stroke-width="0.5"/>
<text class="t" x="394" y="186" text-anchor="middle" dominant-baseline="central" style="fill:#A8ABB4">Blackwell</text>
<text class="b" x="394" y="204" text-anchor="middle" dominant-baseline="central" style="fill:#A8ABB4">GPU</text>
<rect x="196" y="266" width="14" height="14" rx="2" fill="#E8E9EC" stroke="#CBCED4" stroke-width="0.5"/>
<rect x="218" y="266" width="14" height="14" rx="2" fill="#E8E9EC" stroke="#CBCED4" stroke-width="0.5"/>
<rect x="240" y="266" width="14" height="14" rx="2" fill="#E8E9EC" stroke="#CBCED4" stroke-width="0.5"/>
<rect x="262" y="266" width="14" height="14" rx="2" fill="#E8E9EC" stroke="#CBCED4" stroke-width="0.5"/>
<rect x="284" y="266" width="14" height="14" rx="2" fill="#E8E9EC" stroke="#CBCED4" stroke-width="0.5"/>
<rect x="306" y="266" width="14" height="14" rx="2" fill="#E8E9EC" stroke="#CBCED4" stroke-width="0.5"/>
<rect x="328" y="266" width="14" height="14" rx="2" fill="#E8E9EC" stroke="#CBCED4" stroke-width="0.5"/>
<rect x="350" y="266" width="14" height="14" rx="2" fill="#E8E9EC" stroke="#CBCED4" stroke-width="0.5"/>
<rect x="372" y="266" width="14" height="14" rx="2" fill="#E8E9EC" stroke="#CBCED4" stroke-width="0.5"/>
<rect x="394" y="266" width="14" height="14" rx="2" fill="#E8E9EC" stroke="#CBCED4" stroke-width="0.5"/>
<rect x="416" y="266" width="14" height="14" rx="2" fill="#E8E9EC" stroke="#CBCED4" stroke-width="0.5"/>
<rect x="438" y="266" width="14" height="14" rx="2" fill="#E8E9EC" stroke="#CBCED4" stroke-width="0.5"/>
<rect x="460" y="266" width="14" height="14" rx="2" fill="#E8E9EC" stroke="#CBCED4" stroke-width="0.5"/>

<!-- Key -->
<text class="b" x="524" y="92" style="fill:#9A9DA6">Key</text>
<circle cx="530" cy="120" r="6" fill="#C7CACF"/><text class="b" x="544" y="124" style="fill:#A8ABB4">Core silicon</text>
<circle cx="530" cy="150" r="6" fill="#C7CACF"/><text class="b" x="544" y="154" style="fill:#A8ABB4">Memory</text>
<circle cx="530" cy="180" r="6" fill="#1D9E75"/><text class="b" x="544" y="184" style="fill:#56555E">Packaging</text>
<circle cx="530" cy="210" r="6" fill="#C7CACF"/><text class="b" x="544" y="214" style="fill:#A8ABB4">Interconnect</text>
<circle cx="530" cy="240" r="6" fill="#C7CACF"/><text class="b" x="544" y="244" style="fill:#A8ABB4">Power</text>

<!-- Packaging suppliers -->
<rect x="40" y="346" width="600" height="162" rx="12" fill="#FFFFFF" stroke="#E2E3E8" stroke-width="0.5"/>
<rect x="52" y="354" width="96" height="22" rx="6" fill="#E1F5EE" stroke="#0F6E56" stroke-width="0.5"/>
<text class="t" x="100.0" y="365" text-anchor="middle" dominant-baseline="central" style="fill:#085041">Packaging</text>
<text class="b" x="628" y="368" text-anchor="end" style="fill:#56555E">Substrate + package</text>
<rect x="52" y="386" width="184" height="48" rx="8" fill="#F1F4F8" stroke="#DCE1E8" stroke-width="0.5"/>
<text class="t" x="66" y="406" style="fill:#2C2C31">Amkor</text>
<text class="b" x="66" y="423" style="fill:#56555E">Advanced packaging</text>
<rect x="248" y="386" width="184" height="48" rx="8" fill="#F1F4F8" stroke="#DCE1E8" stroke-width="0.5"/>
<text class="t" x="262" y="406" style="fill:#2C2C31">ASE / PTI</text>
<text class="b" x="262" y="423" style="fill:#56555E">OSAT, CoWoS support</text>
<rect x="444" y="386" width="184" height="48" rx="8" fill="#F1F4F8" stroke="#DCE1E8" stroke-width="0.5"/>
<text class="t" x="458" y="406" style="fill:#2C2C31">Powertech</text>
<text class="b" x="458" y="423" style="fill:#56555E">Panel-level fan-out</text>
<rect x="52" y="446" width="184" height="48" rx="8" fill="#F1F4F8" stroke="#DCE1E8" stroke-width="0.5"/>
<text class="t" x="66" y="466" style="fill:#2C2C31">Unimicron</text>
<text class="b" x="66" y="483" style="fill:#56555E">IC substrates</text>
<rect x="248" y="446" width="184" height="48" rx="8" fill="#F1F4F8" stroke="#DCE1E8" stroke-width="0.5"/>
<text class="t" x="262" y="466" style="fill:#2C2C31">Ibiden</text>
<text class="b" x="262" y="483" style="fill:#56555E">IC substrates</text>
<rect x="444" y="446" width="184" height="48" rx="8" fill="#F1F4F8" stroke="#DCE1E8" stroke-width="0.5"/>
<text class="t" x="458" y="466" style="fill:#2C2C31">Nan Ya</text>
<text class="b" x="458" y="483" style="fill:#56555E">Substrate materials</text>

<text class="f" x="40" y="528" style="fill:#9A9DA6">Source: IntuitionLabs — "Nvidia GB200 Supply Chain" (updated Mar 2026). intuitionlabs.ai/articles/Nvidia-gb200-supply-chain</text>
</svg>
