<svg xmlns="http://www.w3.org/2000/svg" viewBox="0 0 680 512" width="680" height="512"><style>text{font-family:-apple-system,system-ui,"Segoe UI",Roboto,Helvetica,Arial,sans-serif;}.th{font-size:14px;font-weight:500;}.ts{font-size:12px;font-weight:400;}</style><rect x="0" y="0" width="680" height="512" rx="16" fill="#EDF0F4" stroke="#DCE0E6" stroke-width="1"/><text class="th" x="40" y="30" style="fill:#2C2C2A">Nvidia GB200 — supplier breakdown</text><rect x="170" y="48" width="340" height="270" rx="14" fill="#FFFFFF" stroke="#C9CED6" stroke-width="1"/><rect x="182" y="60" width="316" height="246" rx="8" fill="#E8E9EC" stroke="#CBCED4" stroke-width="0.5"/><rect x="276" y="74" width="128" height="30" rx="5" fill="#EEEDFE" stroke="#534AB7" stroke-width="0.5"/><text class="th" x="340" y="89" text-anchor="middle" dominant-baseline="central" style="fill:#3C3489">Grace CPU</text><rect x="196" y="108" width="288" height="16" rx="3" fill="#E8E9EC" stroke="#CBCED4" stroke-width="0.5"/><text class="ts" x="340" y="116" text-anchor="middle" dominant-baseline="central" style="fill:#AEB1B7">NVLink-C2C</text><rect x="196" y="132" width="34" height="120" rx="4" fill="#E8E9EC" stroke="#CBCED4" stroke-width="0.5"/><text class="ts" x="213" y="192" text-anchor="middle" dominant-baseline="central" style="fill:#AEB1B7">HBM</text><rect x="450" y="132" width="34" height="120" rx="4" fill="#E8E9EC" stroke="#CBCED4" stroke-width="0.5"/><text class="ts" x="467" y="192" text-anchor="middle" dominant-baseline="central" style="fill:#AEB1B7">HBM</text><rect x="238" y="132" width="96" height="120" rx="6" fill="#EEEDFE" stroke="#534AB7" stroke-width="0.5"/><text class="th" x="286" y="186" text-anchor="middle" dominant-baseline="central" style="fill:#3C3489">Blackwell</text><text class="ts" x="286" y="204" text-anchor="middle" dominant-baseline="central" style="fill:#3C3489">GPU</text><rect x="346" y="132" width="96" height="120" rx="6" fill="#EEEDFE" stroke="#534AB7" stroke-width="0.5"/><text class="th" x="394" y="186" text-anchor="middle" dominant-baseline="central" style="fill:#3C3489">Blackwell</text><text class="ts" x="394" y="204" text-anchor="middle" dominant-baseline="central" style="fill:#3C3489">GPU</text><rect x="196" y="266" width="14" height="14" rx="2" fill="#E8E9EC" stroke="#CBCED4" stroke-width="0.5"/><rect x="218" y="266" width="14" height="14" rx="2" fill="#E8E9EC" stroke="#CBCED4" stroke-width="0.5"/><rect x="240" y="266" width="14" height="14" rx="2" fill="#E8E9EC" stroke="#CBCED4" stroke-width="0.5"/><rect x="262" y="266" width="14" height="14" rx="2" fill="#E8E9EC" stroke="#CBCED4" stroke-width="0.5"/><rect x="284" y="266" width="14" height="14" rx="2" fill="#E8E9EC" stroke="#CBCED4" stroke-width="0.5"/><rect x="306" y="266" width="14" height="14" rx="2" fill="#E8E9EC" stroke="#CBCED4" stroke-width="0.5"/><rect x="328" y="266" width="14" height="14" rx="2" fill="#E8E9EC" stroke="#CBCED4" stroke-width="0.5"/><rect x="350" y="266" width="14" height="14" rx="2" fill="#E8E9EC" stroke="#CBCED4" stroke-width="0.5"/><rect x="372" y="266" width="14" height="14" rx="2" fill="#E8E9EC" stroke="#CBCED4" stroke-width="0.5"/><rect x="394" y="266" width="14" height="14" rx="2" fill="#E8E9EC" stroke="#CBCED4" stroke-width="0.5"/><rect x="416" y="266" width="14" height="14" rx="2" fill="#E8E9EC" stroke="#CBCED4" stroke-width="0.5"/><rect x="438" y="266" width="14" height="14" rx="2" fill="#E8E9EC" stroke="#CBCED4" stroke-width="0.5"/><rect x="460" y="266" width="14" height="14" rx="2" fill="#E8E9EC" stroke="#CBCED4" stroke-width="0.5"/><text class="ts" x="524" y="92" style="fill:#888780">Key</text><circle cx="530" cy="120" r="6" fill="#7F77DD"/><text class="ts" x="544" y="124" style="fill:#5F5E5A">Core silicon</text><circle cx="530" cy="150" r="6" fill="#C7CACF"/><text class="ts" x="544" y="154" style="fill:#AEB1B7">Memory</text><circle cx="530" cy="180" r="6" fill="#C7CACF"/><text class="ts" x="544" y="184" style="fill:#AEB1B7">Packaging</text><circle cx="530" cy="210" r="6" fill="#C7CACF"/><text class="ts" x="544" y="214" style="fill:#AEB1B7">Interconnect</text><circle cx="530" cy="240" r="6" fill="#C7CACF"/><text class="ts" x="544" y="244" style="fill:#AEB1B7">Power</text><rect x="40" y="346" width="600" height="102" rx="12" fill="#FFFFFF" stroke="#D5D9E0" stroke-width="0.5"/><rect x="52" y="354" width="116" height="22" rx="6" fill="#EEEDFE" stroke="#534AB7" stroke-width="0.5"/><text class="th" x="110.0" y="365" text-anchor="middle" dominant-baseline="central" style="fill:#3C3489">Core silicon</text><text class="ts" x="628" y="368" text-anchor="end" style="fill:#6B6A66">GPU dies + Grace CPU</text><rect x="52" y="386" width="184" height="48" rx="8" fill="#F1F4F8" stroke="#DCE1E8" stroke-width="0.5"/><text class="th" x="66" y="406" style="fill:#2C2C2A">Nvidia</text><text class="ts" x="66" y="423" style="fill:#6B6A66">GPU, Grace, NVSwitch</text><rect x="248" y="386" width="184" height="48" rx="8" fill="#F1F4F8" stroke="#DCE1E8" stroke-width="0.5"/><text class="th" x="262" y="406" style="fill:#2C2C2A">TSMC</text><text class="ts" x="262" y="423" style="fill:#6B6A66">Foundry &amp; CoWoS</text><line x1="40" y1="466" x2="640" y2="466" stroke="#DCE0E6" stroke-width="1"/><text class="ts" x="40" y="482" style="fill:#888780">Source: IntuitionLabs — "Nvidia GB200 Supply Chain" (updated Mar 2026).</text><text class="ts" x="40" y="498" style="fill:#888780">intuitionlabs.ai/articles/Nvidia-gb200-supply-chain</text></svg>